<svg width="50" height="50" viewBox="0 0 50 50" fill="none" xmlns="http://www.w3.org/2000/svg">
<path d="M35.2097 41.5723C36.2302 29.1113 27.9832 24.6485 24.9412 23.2422C28.1101 21.3574 30.239 17.9102 30.2439 13.96C30.2635 7.9883 25.4295 3.13478 19.4529 3.12501C13.4812 3.11525 8.62771 7.94435 8.61306 13.9209C8.60818 17.8711 10.7176 21.333 13.8767 23.2276C10.8347 24.6094 2.74392 29.1944 3.53005 41.5039C3.53005 41.5039 3.17849 46.6065 19.3455 46.875H19.3797C35.5467 46.6797 35.2097 41.5723 35.2097 41.5723Z" fill="white"/>
<path d="M36.2109 40.9814C40.0977 40.625 42.2363 39.8291 43.3594 39.1211C44.4775 38.4033 44.6143 37.832 44.6631 37.666L44.6729 37.6221V37.5293C44.7168 36.9531 44.7412 36.3916 44.7412 35.8545C44.7217 27.1289 38.8477 24.0479 36.5186 22.9395L34.9756 22.2266L36.4307 21.3574C38.8477 19.9268 40.4688 17.2998 40.4736 14.2871V14.2627C40.4736 9.72168 36.8018 6.03516 32.2217 6.02539C30.8691 6.02539 29.5947 6.36719 28.4717 6.95801L27.6514 5.37598C29.0234 4.66309 30.5811 4.24316 32.2363 4.24316H32.2607C37.793 4.25293 42.2656 8.74024 42.2656 14.2676V14.292C42.2607 17.3926 40.8447 20.1611 38.623 21.9971C41.626 23.6768 46.543 27.6074 46.5234 35.8545C46.5234 36.4307 46.499 37.0312 46.4551 37.6221C46.4648 37.9736 46.2647 39.1602 44.8828 40.2197C43.4961 41.2988 41.0107 42.3145 36.377 42.749L36.2109 40.9814Z" fill="white"/>
</svg>
