<svg width="50" height="50" viewBox="0 0 50 50" fill="none" xmlns="http://www.w3.org/2000/svg">
<g clip-path="url(#clip0_1220_2140)">
<path d="M45.3938 49.9998H4.60669C2.0668 49.9998 0.000488281 47.9334 0.000488281 45.3936V4.60645C0.000488281 2.06655 2.0668 0.000244141 4.60669 0.000244141H32.4977C33.3088 0.000244141 33.9665 0.657812 33.9665 1.46899C33.9665 2.28018 33.3088 2.93774 32.4977 2.93774H4.60669C3.68652 2.93774 2.93794 3.68633 2.93794 4.60649V45.3936C2.93794 46.3138 3.68652 47.0624 4.60669 47.0624H45.3938C46.3139 47.0624 47.0625 46.3138 47.0625 45.3936V17.5025C47.0625 16.6914 47.7201 16.0338 48.5312 16.0338C49.3423 16.0338 49.9999 16.6914 49.9999 17.5025V45.3936C49.9999 47.9334 47.9336 49.9998 45.3938 49.9998Z" fill="white"/>
<path d="M13.8787 38.0262H13.8784C13.168 38.0261 12.7347 37.7418 12.4963 37.5034C11.8277 36.8349 11.971 35.8903 12.018 35.5799C12.0806 35.1671 12.2109 34.6684 12.4163 34.0552C12.8527 32.7527 13.515 31.2714 13.9938 30.2582C15.1177 27.8797 16.8393 24.693 17.9928 23.5395L39.7121 1.82036C40.8429 0.689453 42.3464 0.0666504 43.9458 0.0666504C45.5451 0.0666504 47.0486 0.689453 48.1795 1.82031C49.3104 2.95117 49.9332 4.45479 49.9332 6.05405C49.9332 7.65337 49.3104 9.15693 48.1795 10.2878L26.4602 32.0071C25.1475 33.3199 21.486 35.1596 20.395 35.6922C18.6095 36.5639 15.3887 38.0262 13.8787 38.0262ZM43.9458 2.99634C43.129 2.99634 42.3612 3.3144 41.7837 3.89194L20.0644 25.6112C19.5361 26.1395 18.2978 28.1133 16.9532 30.8639C16.1422 32.523 15.6066 33.8144 15.287 34.7129C16.1855 34.3933 17.4768 33.8578 19.1361 33.0466C21.8865 31.7021 23.8604 30.4638 24.3887 29.9354L46.1079 8.21621C46.6855 7.63867 47.0035 6.8708 47.0035 6.05405C47.0035 5.2373 46.6855 4.46943 46.1079 3.89194C45.5304 3.31445 44.7625 2.99634 43.9458 2.99634Z" fill="white"/>
<path d="M40.7524 2.85132L47.1482 9.24712L45.0767 11.3187L38.6809 4.9229L40.7524 2.85132ZM20.9642 22.6402L27.36 29.036L25.2884 31.1076L18.8926 24.7117L20.9642 22.6402Z" fill="white"/>
</g>
<defs>
<clipPath id="clip0_1220_2140">
<rect width="50" height="50" fill="white"/>
</clipPath>
</defs>
</svg>
