<svg width="68" height="66" viewBox="0 0 68 66" fill="none" xmlns="http://www.w3.org/2000/svg">
<g clip-path="url(#clip0_1219_1052)">
<path d="M11.8684 -9.99182e-06H55.1529C56.7119 -0.00147935 58.2559 0.304502 59.6965 0.900422C61.1371 1.49634 62.446 2.3705 63.5484 3.47287C64.6508 4.57524 65.5249 5.88418 66.1209 7.32478C66.7168 8.76538 67.0228 10.3094 67.0213 11.8683V53.4774C67.0228 55.0364 66.7168 56.5803 66.1209 58.021C65.5249 59.4615 64.6508 60.7705 63.5484 61.8729C62.446 62.9752 61.1371 63.8494 59.6965 64.4453C58.2559 65.0412 56.7119 65.3472 55.1529 65.3457H11.8684C10.3094 65.3472 8.7654 65.0412 7.3248 64.4453C5.8842 63.8494 4.57526 62.9752 3.47289 61.8729C2.37052 60.7705 1.49636 59.4615 0.900437 58.021C0.304517 56.5803 -0.00146409 55.0364 5.26697e-06 53.4774V11.8683C-0.00146409 10.3094 0.304517 8.76538 0.900437 7.32478C1.49636 5.88418 2.37052 4.57524 3.47289 3.47287C4.57526 2.3705 5.8842 1.49634 7.3248 0.900422C8.7654 0.304502 10.3094 -0.00147935 11.8684 -9.99182e-06Z" fill="#000B1D"/>
<path d="M26.5292 53.617C30.385 53.617 33.5106 50.4914 33.5106 46.6357V39.6543H26.5292C22.6735 39.6543 19.5479 42.7799 19.5479 46.6357C19.5479 50.4914 22.6735 53.617 26.5292 53.617Z" fill="#0ACF83"/>
<path d="M19.5479 32.6729C19.5479 28.8172 22.6735 25.6915 26.5292 25.6915H33.5106V39.6543H26.5292C22.6735 39.6543 19.5479 36.5286 19.5479 32.6729Z" fill="#A259FF"/>
<path d="M19.5479 18.7101C19.5479 14.8544 22.6735 11.7287 26.5292 11.7287H33.5106V25.6915H26.5292C22.6735 25.6915 19.5479 22.5658 19.5479 18.7101Z" fill="#F24E1E"/>
<path d="M33.5107 11.7287H40.4921C44.3478 11.7287 47.4735 14.8544 47.4735 18.7101C47.4735 22.5658 44.3478 25.6915 40.4921 25.6915H33.5107V11.7287Z" fill="#FF7262"/>
<path d="M47.4735 32.6729C47.4735 36.5286 44.3478 39.6543 40.4921 39.6543C36.6364 39.6543 33.5107 36.5286 33.5107 32.6729C33.5107 28.8172 36.6364 25.6915 40.4921 25.6915C44.3478 25.6915 47.4735 28.8172 47.4735 32.6729Z" fill="#1ABCFE"/>
</g>
<defs>
<clipPath id="clip0_1219_1052">
<rect width="67.0213" height="65.3458" fill="white"/>
</clipPath>
</defs>
</svg>
