<svg width="50" height="50" viewBox="0 0 50 50" fill="none" xmlns="http://www.w3.org/2000/svg">
<path d="M35.1077 29.4429L35.1075 29.4427L35.1074 29.4429H35.1077Z" fill="white"/>
<path d="M30.983 33.6343L33.9808 31.8112C34.4084 31.5512 34.6359 31.0874 34.6146 30.6204C34.6098 30.2896 34.8054 29.8788 34.9445 29.6297C34.9893 29.5566 35.0477 29.5021 35.091 29.4282C35.0925 29.4258 35.1073 29.4424 35.1076 29.4428C37.1106 26.0356 37.4283 21.659 35.589 17.7996C32.6376 11.607 25.2179 8.97001 19.0253 11.9213C12.8327 14.8726 10.2016 22.2806 13.1529 28.4732C14.9952 32.3388 18.5741 34.8127 22.5112 35.4102L22.5103 35.4091C22.5103 35.4091 23.2541 35.5142 23.3528 36.1626L23.3526 36.1623C23.3801 36.3208 23.4367 36.4768 23.5253 36.6225C23.8809 37.2072 24.6175 37.4179 25.2222 37.1297C25.2627 37.1104 25.3025 37.0888 25.3417 37.065L30.675 33.8217C30.7787 33.7606 30.8815 33.6981 30.983 33.6343Z" fill="white"/>
<path d="M36.6539 33.663C36.2746 33.0392 35.4616 32.841 34.8375 33.2204L26.1983 38.4742C25.5745 38.8535 25.3763 39.6668 25.7557 40.2906C26.1112 40.8753 26.8479 41.086 27.4526 40.7979C27.4931 40.7785 27.533 40.757 27.5721 40.7332L36.2114 35.4795C36.8351 35.1001 37.0333 34.2868 36.6539 33.663Z" fill="white"/>
<path d="M36.867 36.9953L29.3267 41.5794C29.2421 41.6346 29.2243 41.694 29.2587 41.7659C29.317 41.8883 29.4554 41.8944 29.4866 41.8967L29.4939 41.9025H29.494L32.4821 42.0606C32.9935 42.0886 33.6515 41.7723 33.9519 41.3574L36.9486 37.2169C36.9486 37.2168 37.064 37.0594 36.9935 36.9891C36.9575 36.9532 36.9086 36.9697 36.867 36.9953Z" fill="white"/>
<path d="M16.2403 9.22359C16.5682 9.91142 17.3917 10.2033 18.0795 9.87549C18.7673 9.54767 19.0592 8.72418 18.7314 8.03634L17.841 6.16806C17.5131 5.48017 16.6896 5.18832 16.0018 5.5161C15.3139 5.84393 15.0221 6.66742 15.3498 7.35525L16.2403 9.22359Z" fill="white"/>
<path d="M39.6152 17.3801L41.4835 16.4897C42.1714 16.1619 42.4633 15.3384 42.1355 14.6505C41.8076 13.9626 40.9842 13.6707 40.2964 13.9986L38.428 14.889C37.7402 15.2168 37.4483 16.0403 37.7761 16.7282C38.1039 17.416 38.9274 17.7079 39.6152 17.3801Z" fill="white"/>
<path d="M9.31346 28.7647L7.44513 29.655C6.7573 29.9829 6.4654 30.8064 6.79322 31.4942C7.12105 32.1821 7.94454 32.474 8.63238 32.1462L10.5007 31.2557C11.1885 30.9279 11.4804 30.1044 11.1526 29.4166C10.8248 28.7288 10.0013 28.4368 9.31346 28.7647Z" fill="white"/>
<path d="M42.0752 27.851L40.1244 27.1595C39.4062 26.9052 38.6176 27.281 38.3628 27.9991C38.1083 28.7174 38.4841 29.5059 39.2023 29.7607L41.1531 30.4522C41.5122 30.5793 41.8889 30.5491 42.2077 30.3971C42.5265 30.2452 42.7873 29.9717 42.9147 29.6126C43.1692 28.8943 42.7934 28.1057 42.0752 27.851Z" fill="white"/>
<path d="M8.80399 18.985C9.163 19.1123 9.53964 19.082 9.85848 18.93C10.1773 18.778 10.438 18.5046 10.5654 18.1454C10.82 17.4272 10.4441 16.6385 9.72572 16.384L7.77509 15.6927C7.05708 15.4381 6.26836 15.8139 6.01374 16.5323C5.75916 17.2505 6.135 18.0392 6.85337 18.2937L8.80399 18.985Z" fill="white"/>
<path d="M19.5371 36.9714C18.8188 36.717 18.0303 37.0928 17.7755 37.8109L17.084 39.7617C16.8295 40.4801 17.2053 41.2686 17.9236 41.5233C18.2827 41.6505 18.6594 41.6203 18.9782 41.4683C19.2971 41.3164 19.5578 41.0428 19.6852 40.6837L20.3766 38.733C20.6312 38.0146 20.2554 37.2261 19.5371 36.9714Z" fill="white"/>
<path d="M29.3909 9.17418C29.75 9.30134 30.1267 9.27111 30.4455 9.11916C30.7644 8.96722 31.0251 8.6937 31.1524 8.33465L31.844 6.38387C32.0985 5.66551 31.7227 4.87704 31.0044 4.62226C30.2861 4.36794 29.4976 4.74368 29.2428 5.46184L28.5513 7.41257C28.2968 8.13094 28.6726 8.9194 29.3909 9.17418Z" fill="white"/>
</svg>
