<svg width="68" height="66" viewBox="0 0 68 66" fill="none" xmlns="http://www.w3.org/2000/svg">
<g clip-path="url(#clip0_1220_1984)">
<path d="M12.134 -9.99182e-06H55.4186C56.9776 -0.00147935 58.5215 0.304502 59.9621 0.900422C61.4027 1.49634 62.7117 2.3705 63.814 3.47287C64.9164 4.57524 65.7906 5.88419 66.3865 7.32478C66.9824 8.76538 67.2884 10.3094 67.2869 11.8683V53.4774C67.2884 55.0364 66.9824 56.5804 66.3865 58.021C65.7906 59.4616 64.9164 60.7705 63.814 61.8729C62.7117 62.9752 61.4027 63.8494 59.9621 64.4453C58.5215 65.0412 56.9776 65.3472 55.4186 65.3457H12.134C10.575 65.3472 9.03102 65.0412 7.59042 64.4453C6.14983 63.8494 4.84088 62.9752 3.73851 61.8729C2.63614 60.7705 1.76198 59.4616 1.16606 58.021C0.570142 56.5804 0.264161 55.0364 0.26563 53.4774V11.8683C0.264161 10.3094 0.570142 8.76538 1.16606 7.32478C1.76198 5.88419 2.63614 4.57524 3.73851 3.47287C4.84088 2.3705 6.14983 1.49634 7.59042 0.900422C9.03102 0.304502 10.575 -0.00147935 12.134 -9.99182e-06Z" fill="#330000"/>
<path d="M32.7428 39.2075H22.3545L20.2321 45.77C20.2084 45.8896 20.1408 45.996 20.0427 46.0683C19.9445 46.1407 19.8228 46.1737 19.7015 46.1609H14.4515C14.1444 46.1609 14.0606 45.9934 14.1444 45.6583L23.1364 19.7713C23.2202 19.492 23.3039 19.1848 23.4156 18.8497C23.528 18.2512 23.5841 17.6435 23.5832 17.0346C23.5748 16.9646 23.5932 16.8941 23.6346 16.8372C23.6761 16.7802 23.7375 16.741 23.8066 16.7274H31.0393C31.2627 16.7274 31.3744 16.8112 31.4023 16.9508L41.5952 45.7141C41.6789 46.0213 41.5952 46.1609 41.3159 46.1609H35.4795C35.3808 46.1704 35.2819 46.1448 35.2002 46.0887C35.1184 46.0325 35.0591 45.9493 35.0327 45.8537L32.7428 39.2075ZM23.9742 33.5386H31.0672C30.8997 32.9521 30.6763 32.254 30.425 31.5279C30.1736 30.8019 29.9223 29.9641 29.671 29.1263C29.4196 28.2886 29.1404 27.4229 28.8611 26.5572C28.5819 25.6915 28.3305 24.8817 28.1071 24.0718C27.8837 23.262 27.6882 22.5638 27.4928 21.8936H27.4369C27.1859 23.1107 26.869 24.3133 26.4875 25.496C26.0686 26.8364 25.6497 28.2327 25.2029 29.629C24.8119 31.0532 24.393 32.3657 23.9742 33.5386Z" fill="#FF9A00"/>
<path d="M47.683 21.5027C47.2246 21.5127 46.7688 21.4314 46.3422 21.2636C45.9155 21.0958 45.5264 20.8449 45.1977 20.5253C44.5579 19.8257 44.2171 18.9036 44.2482 17.9561C44.2317 17.4945 44.3127 17.0345 44.4859 16.6063C44.6591 16.178 44.9207 15.7911 45.2535 15.4707C45.9247 14.8363 46.8153 14.4861 47.7389 14.4934C48.828 14.4934 49.6657 14.8285 50.2801 15.4707C50.8988 16.1479 51.2293 17.0394 51.2016 17.9561C51.2187 18.4279 51.141 18.8984 50.9731 19.3397C50.8052 19.7809 50.5506 20.1841 50.2243 20.5253C49.8952 20.8604 49.4981 21.1211 49.0597 21.2897C48.6213 21.4583 48.1519 21.5309 47.683 21.5027ZM44.5554 45.742V24.2394C44.5554 23.9601 44.6671 23.8484 44.9184 23.8484H50.4477C50.699 23.8484 50.8107 23.988 50.8107 24.2394V45.742C50.8107 46.0492 50.699 46.1888 50.4477 46.1888H44.9743C44.9156 46.1937 44.8565 46.1852 44.8016 46.164C44.7466 46.1429 44.6972 46.1096 44.6569 46.0666C44.6166 46.0236 44.5866 45.9721 44.569 45.9159C44.5514 45.8597 44.5468 45.8003 44.5554 45.742Z" fill="#FF9A00"/>
</g>
<defs>
<clipPath id="clip0_1220_1984">
<rect width="67.0213" height="65.3458" fill="white" transform="translate(0.265625)"/>
</clipPath>
</defs>
</svg>
