<svg width="68" height="66" viewBox="0 0 68 66" fill="none" xmlns="http://www.w3.org/2000/svg">
<g clip-path="url(#clip0_1220_1985)">
<path d="M12.0012 -9.99182e-06H55.2858C56.8447 -0.00147935 58.3887 0.304502 59.8293 0.900422C61.2699 1.49634 62.5789 2.3705 63.6812 3.47287C64.7836 4.57524 65.6578 5.88419 66.2537 7.32478C66.8496 8.76538 67.1556 10.3094 67.1541 11.8683V53.4774C67.1556 55.0364 66.8496 56.5804 66.2537 58.021C65.6578 59.4616 64.7836 60.7705 63.6812 61.8729C62.5789 62.9752 61.2699 63.8494 59.8293 64.4453C58.3887 65.0412 56.8447 65.3472 55.2858 65.3457H12.0012C10.4422 65.3472 8.89821 65.0412 7.45761 64.4453C6.01701 63.8494 4.70807 62.9752 3.6057 61.8729C2.50333 60.7705 1.62917 59.4616 1.03325 58.021C0.43733 56.5804 0.131348 55.0364 0.132818 53.4774V11.8683C0.131348 10.3094 0.43733 8.76538 1.03325 7.32478C1.62917 5.88419 2.50333 4.57524 3.6057 3.47287C4.70807 2.3705 6.01701 1.49634 7.45761 0.900422C8.89821 0.304502 10.4422 -0.00147935 12.0012 -9.99182e-06Z" fill="#001E36"/>
<path d="M15.2124 45.8258V17.0904C15.2124 16.8949 15.2962 16.7832 15.4917 16.7832C15.9664 16.7832 16.4132 16.7832 17.0555 16.7553C17.6978 16.7274 18.4238 16.7274 19.1778 16.6995C19.9318 16.6715 20.7417 16.6715 21.6074 16.6436C22.473 16.6157 23.3108 16.6157 24.1486 16.6157C26.4385 16.6157 28.3374 16.8949 29.9012 17.4814C31.3031 17.9574 32.5814 18.7397 33.6433 19.7713C34.5431 20.6741 35.2383 21.7598 35.6818 22.9548C36.1045 24.1186 36.3219 25.3469 36.3241 26.5851C36.3241 28.9867 35.7656 30.9694 34.6486 32.5332C33.5264 34.0949 31.9596 35.2822 30.1526 35.9402C28.2536 36.6383 26.1592 36.8896 23.8693 36.8896C23.1991 36.8896 22.7523 36.8896 22.473 36.8617C22.1938 36.8338 21.8028 36.8338 21.2722 36.8338V45.7979C21.2785 45.8438 21.2754 45.8906 21.2632 45.9353C21.2511 45.9801 21.23 46.0219 21.2014 46.0584C21.1727 46.0948 21.1371 46.1252 21.0965 46.1476C21.0559 46.17 21.0112 46.184 20.9651 46.1888H15.5475C15.3241 46.1888 15.2124 46.0771 15.2124 45.8258ZM21.3002 22.1729V31.5559C21.6911 31.5838 22.0542 31.6117 22.3893 31.6117H23.8693C24.9595 31.613 26.0431 31.4434 27.0808 31.109C27.971 30.8472 28.7663 30.3332 29.3706 29.629C29.9571 28.9309 30.2363 27.9814 30.2363 26.7527C30.2626 25.88 30.0398 25.0179 29.5941 24.2673C29.1284 23.5422 28.4436 22.9846 27.6393 22.6755C26.5909 22.2649 25.4692 22.0748 24.3441 22.117C23.618 22.117 22.9757 22.117 22.4451 22.1449C22.0634 22.12 21.6802 22.1293 21.3002 22.1729Z" fill="#31A8FF"/>
<path d="M53.7499 29.8524C52.9067 29.4083 52.0038 29.0885 51.0691 28.9029C50.0425 28.6704 48.9939 28.5487 47.9414 28.5399C47.3762 28.5204 46.8114 28.5863 46.2659 28.7354C45.918 28.8078 45.6095 29.0068 45.4002 29.2939C45.2591 29.5205 45.1819 29.781 45.1768 30.0479C45.1898 30.3135 45.2876 30.568 45.456 30.7739C45.7207 31.0844 46.0432 31.3405 46.4055 31.5279C47.0478 31.863 47.718 32.1702 48.3882 32.4495C49.8969 32.9574 51.3404 33.6416 52.6887 34.488C53.6058 35.0647 54.3642 35.8614 54.8949 36.8059C55.3436 37.6967 55.5643 38.685 55.5371 39.6822C55.5598 41.0021 55.1799 42.2976 54.448 43.3963C53.6691 44.511 52.5823 45.3747 51.3204 45.8817C49.952 46.4681 48.2765 46.7753 46.2659 46.7753C44.991 46.7804 43.7188 46.6588 42.468 46.4122C41.4831 46.2421 40.5252 45.9415 39.6196 45.5186C39.5222 45.4698 39.4413 45.3935 39.3867 45.2993C39.3321 45.205 39.3063 45.0968 39.3124 44.988V40.129C39.31 40.0813 39.3188 40.0337 39.3382 39.99C39.3577 39.9463 39.3871 39.9079 39.4241 39.8777C39.4635 39.8547 39.5091 39.8451 39.5544 39.8501C39.5996 39.8551 39.6421 39.8746 39.6754 39.9056C40.7511 40.5398 41.9196 41.0015 43.1382 41.2739C44.2142 41.5539 45.3216 41.6947 46.4334 41.6928C47.4946 41.6928 48.2486 41.5532 48.7512 41.3019C48.9754 41.1983 49.1655 41.033 49.299 40.8252C49.4326 40.6175 49.5041 40.376 49.5052 40.129C49.5052 39.738 49.2818 39.375 48.835 39.012C48.3882 38.6489 47.4667 38.2301 46.0983 37.6995C44.6946 37.2048 43.3615 36.5289 42.1329 35.6888C41.2578 35.0652 40.5328 34.2543 40.0105 33.3152C39.5649 32.4332 39.3442 31.4547 39.3683 30.4668C39.3724 29.2752 39.7006 28.1071 40.3177 27.0878C41.0271 25.9667 42.0454 25.0746 43.2499 24.5186C44.5624 23.8484 46.21 23.5412 48.1927 23.5412C49.3515 23.5416 50.5088 23.6256 51.6555 23.7926C52.48 23.9041 53.287 24.1199 54.0571 24.4348C54.1798 24.4783 54.2802 24.5687 54.3363 24.6862C54.3685 24.7952 54.3873 24.9077 54.3922 25.0213V29.5731C54.3926 29.6274 54.3802 29.681 54.3559 29.7296C54.3317 29.7781 54.2962 29.8202 54.2526 29.8524C54.0901 29.9108 53.9124 29.9108 53.7499 29.8524Z" fill="#31A8FF"/>
</g>
<defs>
<clipPath id="clip0_1220_1985">
<rect width="67.0213" height="65.3458" fill="white" transform="translate(0.132812)"/>
</clipPath>
</defs>
</svg>
