<svg width="50" height="50" viewBox="0 0 50 50" fill="none" xmlns="http://www.w3.org/2000/svg">
<path d="M49.2368 45.1729L37.8249 32.8766C40.8857 29.4009 42.7268 24.9431 42.7268 20.0801C42.7268 8.99222 33.1599 0 21.3634 0C9.56304 0 0 8.99222 0 20.0801C0 31.1679 9.56304 40.1602 21.3634 40.1602C25.7526 40.1602 29.8311 38.9115 33.222 36.7794L44.5641 49.0027C45.6866 50.2184 47.6521 50.3353 48.9339 49.2838C50.2312 48.225 50.3594 46.385 49.2368 45.1729ZM5.82638 20.0801C5.82638 12.0261 12.7947 5.47638 21.3634 5.47638C29.9321 5.47638 36.9004 12.0261 36.9004 20.0801C36.9004 28.134 29.9321 34.6838 21.3634 34.6838C12.7947 34.6838 5.82638 28.134 5.82638 20.0801Z" fill="white"/>
</svg>
