<svg width="50" height="50" viewBox="0 0 50 50" fill="none" xmlns="http://www.w3.org/2000/svg">
<path d="M25.0002 47.9167C12.2918 47.9167 2.0835 37.7084 2.0835 25C2.0835 12.2917 12.2918 2.08337 25.0002 2.08337C37.7085 2.08337 47.9168 12.2917 47.9168 25C47.9168 37.7084 37.7085 47.9167 25.0002 47.9167ZM25.0002 6.25004C14.5835 6.25004 6.25016 14.5834 6.25016 25C6.25016 35.4167 14.5835 43.75 25.0002 43.75C35.4168 43.75 43.7502 35.4167 43.7502 25C43.7502 14.5834 35.4168 6.25004 25.0002 6.25004Z" fill="white"/>
<path d="M24.9998 39.5833C16.8748 39.5833 10.4165 33.125 10.4165 25C10.4165 16.875 16.8748 10.4166 24.9998 10.4166C33.1248 10.4166 39.5832 16.875 39.5832 25C39.5832 33.125 33.1248 39.5833 24.9998 39.5833ZM24.9998 14.5833C19.1665 14.5833 14.5832 19.1666 14.5832 25C14.5832 30.8333 19.1665 35.4166 24.9998 35.4166C30.8332 35.4166 35.4165 30.8333 35.4165 25C35.4165 19.1666 30.8332 14.5833 24.9998 14.5833Z" fill="white"/>
<path d="M25 31.25C21.4583 31.25 18.75 28.5417 18.75 25C18.75 21.4583 21.4583 18.75 25 18.75C28.5417 18.75 31.25 21.4583 31.25 25C31.25 28.5417 28.5417 31.25 25 31.25ZM25 22.9167C23.75 22.9167 22.9167 23.75 22.9167 25C22.9167 26.25 23.75 27.0833 25 27.0833C26.25 27.0833 27.0833 26.25 27.0833 25C27.0833 23.75 26.25 22.9167 25 22.9167Z" fill="white"/>
</svg>
