<svg width="463" height="160" viewBox="0 0 463 160" fill="none" xmlns="http://www.w3.org/2000/svg">
<path d="M158.015 0C159.592 0 160.686 1.57256 160.138 3.05175L109.295 140.217C108.966 141.105 108.119 141.694 107.172 141.694H92.2336C91.273 141.694 90.417 141.088 90.0977 140.182L70.8299 85.5129C69.4104 81.4853 63.7164 81.4799 62.2892 85.5048L42.9011 140.186C42.5806 141.09 41.7256 141.694 40.7666 141.694H25.774C24.8523 141.694 24.0225 141.136 23.6757 140.282L0.168605 82.3791C-0.435936 80.89 0.659787 79.2626 2.26692 79.2626H20.4257C21.3465 79.2626 22.1755 79.82 22.523 80.6727L29.8765 98.7192C31.4509 102.583 36.9696 102.443 38.3465 98.5048L58.7937 40.0163C59.1113 39.1075 59.9688 38.499 60.9314 38.499H73.4952C74.4674 38.499 75.3312 39.1196 75.6414 40.041L95.3387 98.5465C96.7062 102.608 102.427 102.675 103.889 98.6458L139.132 1.49236C139.457 0.596545 140.308 0 141.261 0H158.015Z" fill="#5EDE99"/>
<path d="M146.366 105.931H157.309V142.673H146.366V105.931ZM157.671 88.6835V98.974H146.004V88.6835H157.671Z" fill="white"/>
<path d="M180.312 143.252C173.355 143.252 167.871 141.755 163.861 138.759L166.76 131.15C168.692 132.551 170.842 133.638 173.21 134.411C175.577 135.136 177.993 135.498 180.457 135.498C182.341 135.498 183.79 135.208 184.805 134.629C185.819 134.049 186.326 133.203 186.326 132.092C186.326 131.174 185.964 130.45 185.239 129.918C184.515 129.387 183.234 128.928 181.399 128.541L175.384 127.164C171.857 126.391 169.248 125.159 167.557 123.468C165.914 121.777 165.093 119.531 165.093 116.729C165.093 114.458 165.745 112.429 167.05 110.641C168.403 108.854 170.263 107.477 172.63 106.511C174.997 105.496 177.727 104.989 180.819 104.989C183.428 104.989 185.988 105.4 188.501 106.221C191.013 106.994 193.259 108.105 195.24 109.554L192.196 116.874C190.312 115.569 188.38 114.579 186.399 113.903C184.466 113.226 182.582 112.888 180.746 112.888C178.959 112.888 177.558 113.202 176.543 113.83C175.529 114.458 175.021 115.328 175.021 116.439C175.021 117.26 175.311 117.937 175.891 118.468C176.519 118.951 177.606 119.362 179.152 119.7L185.312 121.077C189.08 121.947 191.81 123.251 193.501 124.99C195.192 126.73 196.037 129.049 196.037 131.947C196.037 135.426 194.636 138.18 191.834 140.209C189.032 142.238 185.191 143.252 180.312 143.252Z" fill="white"/>
<path d="M235.673 125.208H211.468C211.661 128.638 212.555 131.15 214.149 132.744C215.744 134.29 218.111 135.063 221.251 135.063C223.135 135.063 225.02 134.749 226.904 134.121C228.788 133.493 230.527 132.575 232.122 131.368L235.02 138.759C233.281 140.16 231.107 141.272 228.498 142.093C225.938 142.866 223.353 143.252 220.744 143.252C214.56 143.252 209.705 141.561 206.178 138.18C202.651 134.749 200.888 130.087 200.888 124.193C200.888 120.473 201.636 117.164 203.134 114.265C204.68 111.318 206.83 109.047 209.584 107.453C212.338 105.81 215.454 104.989 218.932 104.989C224.102 104.989 228.184 106.68 231.179 110.062C234.175 113.395 235.673 117.912 235.673 123.613V125.208ZM219.222 112.671C217.145 112.671 215.454 113.274 214.149 114.482C212.893 115.69 212.072 117.454 211.685 119.773H226.252C225.672 115.038 223.329 112.671 219.222 112.671Z" fill="white"/>
<path d="M259.935 143.252C253.945 143.252 249.234 141.561 245.804 138.18C242.422 134.798 240.731 130.184 240.731 124.338C240.731 120.521 241.552 117.164 243.195 114.265C244.838 111.318 247.133 109.047 250.08 107.453C253.075 105.81 256.529 104.989 260.443 104.989C263.1 104.989 265.685 105.4 268.197 106.221C270.709 107.042 272.714 108.153 274.212 109.554L271.313 117.164C269.864 116.004 268.269 115.11 266.53 114.482C264.791 113.806 263.1 113.468 261.457 113.468C258.462 113.468 256.119 114.386 254.428 116.222C252.785 118.009 251.964 120.642 251.964 124.121C251.964 127.647 252.785 130.329 254.428 132.165C256.07 133.952 258.414 134.846 261.457 134.846C263.1 134.846 264.791 134.532 266.53 133.904C268.269 133.228 269.864 132.31 271.313 131.15L274.212 138.759C272.617 140.16 270.54 141.272 267.979 142.093C265.419 142.866 262.737 143.252 259.935 143.252Z" fill="white"/>
<path d="M300.792 105.061C302.338 105.061 303.643 105.303 304.706 105.786L304.633 115.787C302.846 114.965 301.058 114.555 299.271 114.555C296.372 114.555 294.149 115.352 292.603 116.946C291.106 118.492 290.357 120.666 290.357 123.468V142.673H279.414V116.439C279.414 112.526 279.221 109.023 278.834 105.931H289.125L289.85 112.236C290.768 109.917 292.193 108.153 294.125 106.946C296.106 105.689 298.328 105.061 300.792 105.061Z" fill="white"/>
<path d="M347.566 105.931L330.608 144.629C328.531 149.316 325.898 152.746 322.709 154.92C319.569 157.142 315.704 158.567 311.114 159.195L308.578 150.789C311.96 150.064 314.496 149.146 316.187 148.035C317.926 146.924 319.279 145.306 320.245 143.18L321.332 140.788L306.186 105.931H317.636L327.057 129.773L336.768 105.931H347.566Z" fill="white"/>
<path d="M373.64 104.989C376.781 104.989 379.583 105.81 382.047 107.453C384.511 109.047 386.419 111.318 387.772 114.265C389.173 117.212 389.873 120.57 389.873 124.338C389.873 128.106 389.197 131.44 387.844 134.339C386.491 137.189 384.583 139.387 382.119 140.933C379.655 142.479 376.829 143.252 373.64 143.252C371.08 143.252 368.785 142.721 366.756 141.658C364.727 140.595 363.181 139.122 362.118 137.237V158.326H351.175V116.439C351.175 112.526 350.982 109.023 350.595 105.931H360.886L361.611 112.018C362.577 109.844 364.123 108.129 366.249 106.873C368.423 105.617 370.887 104.989 373.64 104.989ZM370.524 134.918C373.23 134.918 375.307 134.025 376.757 132.237C378.206 130.401 378.931 127.768 378.931 124.338C378.931 120.908 378.182 118.227 376.684 116.294C375.235 114.362 373.181 113.395 370.524 113.395C367.819 113.395 365.717 114.337 364.219 116.222C362.77 118.057 362.045 120.715 362.045 124.193C362.045 127.672 362.77 130.329 364.219 132.165C365.717 134.001 367.819 134.918 370.524 134.918Z" fill="white"/>
<path d="M410.308 114.12V128.396C410.308 130.425 410.839 131.923 411.902 132.889C412.965 133.807 414.342 134.266 416.033 134.266C417.096 134.266 418.303 134.097 419.656 133.759V142.238C417.917 142.914 415.815 143.252 413.352 143.252C408.81 143.252 405.332 141.972 402.916 139.412C400.549 136.851 399.365 133.252 399.365 128.614V114.12H392.408V105.931H399.365V97.3072L410.308 93.7563V105.931H419.656V114.12H410.308Z" fill="white"/>
<path d="M442.809 143.252C438.896 143.252 435.465 142.479 432.518 140.933C429.62 139.387 427.373 137.165 425.779 134.266C424.233 131.368 423.46 127.986 423.46 124.121C423.46 120.256 424.233 116.874 425.779 113.975C427.373 111.076 429.62 108.854 432.518 107.308C435.465 105.762 438.896 104.989 442.809 104.989C446.674 104.989 450.056 105.762 452.954 107.308C455.853 108.854 458.076 111.076 459.622 113.975C461.216 116.874 462.013 120.256 462.013 124.121C462.013 127.986 461.216 131.368 459.622 134.266C458.076 137.165 455.853 139.387 452.954 140.933C450.056 142.479 446.674 143.252 442.809 143.252ZM442.809 134.918C445.514 134.918 447.568 134.025 448.969 132.237C450.418 130.45 451.143 127.744 451.143 124.121C451.143 120.546 450.418 117.864 448.969 116.077C447.568 114.241 445.514 113.323 442.809 113.323C440.055 113.323 437.953 114.241 436.504 116.077C435.055 117.864 434.33 120.546 434.33 124.121C434.33 131.319 437.156 134.918 442.809 134.918Z" fill="white"/>
</svg>